{"asset":{"version":"2.0","generator":"THREE.GLTFExporter"},"scenes":[{"nodes":[0]}],"scene":0,"nodes":[{"mesh":0}],"bufferViews":[{"buffer":0,"byteOffset":0,"byteLength":14292,"target":34962,"byteStride":12},{"buffer":0,"byteOffset":14292,"byteLength":2384,"target":34963}],"buffers":[{"byteLength":16676,"uri":"data:application/octet-stream;base64,"}],"accessors":[{"bufferView":0,"componentType":5126,"count":1191,"max":[21.699996948242188,3.9000000953674316,8.199990272521973],"min":[-13.100005149841309,0.10000008344650269,-10.600010871887207],"type":"VEC3"},{"bufferView":1,"componentType":5123,"count":1191,"max":[1190],"min":[0],"type":"SCALAR"}],"materials":[{"pbrMetallicRoughness":{"metallicFactor":0,"roughnessFactor":1}}],"meshes":[{"primitives":[{"mode":4,"attributes":{"POSITION":0},"indices":1,"material":0}]}]}