{"asset":{"version":"2.0","generator":"THREE.GLTFExporter"},"scenes":[{"nodes":[0]}],"scene":0,"nodes":[{"mesh":0}],"bufferViews":[{"buffer":0,"byteOffset":0,"byteLength":211824,"target":34962,"byteStride":12},{"buffer":0,"byteOffset":211824,"byteLength":35304,"target":34963}],"buffers":[{"byteLength":247128,"uri":"data:application/octet-stream;base64,"}],"accessors":[{"bufferView":0,"componentType":5126,"count":17652,"max":[63.62999725341797,14.380001068115234,60.599998474121094],"min":[-63.37000274658203,-3.8199996948242188,-63.599998474121094],"type":"VEC3"},{"bufferView":1,"componentType":5123,"count":17652,"max":[17651],"min":[0],"type":"SCALAR"}],"materials":[{"pbrMetallicRoughness":{"metallicFactor":0,"roughnessFactor":1}}],"meshes":[{"primitives":[{"mode":4,"attributes":{"POSITION":0},"indices":1,"material":0}]}]}