{
  "accessors": [
    {
      "bufferView": 2,
      "componentType": 5126,
      "count": 2979,
      "max": [
        43.808570861816406,
        0.7583100199699402,
        15.84827995300293
      ],
      "min": [
        -27.811800003051758,
        -68.68818664550781,
        -43.550411224365234
      ],
      "type": "VEC3"
    },
    {
      "bufferView": 2,
      "byteOffset": 35748,
      "componentType": 5126,
      "count": 2979,
      "max": [
        0.9972503781318665,
        0.9999127388000488,
        0.9992023706436157
      ],
      "min": [
        -0.9997692704200745,
        -0.9986799955368042,
        -0.9988440275192261
      ],
      "type": "VEC3"
    },
    {
      "bufferView": 1,
      "componentType": 5126,
      "count": 2979,
      "max": [
        0.9944499731063843,
        0.993149995803833
      ],
      "min": [
        0.006730000022798777,
        0.008349999785423279
      ],
      "type": "VEC2"
    },
    {
      "bufferView": 0,
      "componentType": 5125,
      "count": 13464,
      "type": "SCALAR"
    },
    {
      "bufferView": 2,
      "byteOffset": 71496,
      "componentType": 5126,
      "count": 1075,
      "max": [
        17.044160842895508,
        0.7583100199699402,
        15.84827995300293
      ],
      "min": [
        -31.529109954833984,
        -48.3355598449707,
        -33.239070892333984
      ],
      "type": "VEC3"
    },
    {
      "bufferView": 2,
      "byteOffset": 84396,
      "componentType": 5126,
      "count": 1075,
      "max": [
        0.99934321641922,
        0.9906132817268372,
        0.9996017813682556
      ],
      "min": [
        -0.9987708330154419,
        -0.9998129606246948,
        -0.9996744394302368
      ],
      "type": "VEC3"
    },
    {
      "bufferView": 1,
      "byteOffset": 23832,
      "componentType": 5126,
      "count": 1075,
      "max": [
        0.9911100268363953,
        0.9920499920845032
      ],
      "min": [
        0.005270000081509352,
        0.0070500001311302185
      ],
      "type": "VEC2"
    },
    {
      "bufferView": 0,
      "byteOffset": 53856,
      "componentType": 5125,
      "count": 4536,
      "type": "SCALAR"
    }
  ],
  "asset": {
    "extras": {
      "author": "moppius (https://sketchfab.com/moppius)",
      "license": "CC-BY-SA-4.0 (http://creativecommons.org/licenses/by-sa/4.0/)",
      "source": "https://sketchfab.com/3d-models/goblin-9bf39d5a9fd849c79a6d33870d765840",
      "title": "Goblin"
    },
    "generator": "Sketchfab-12.68.0",
    "version": "2.0"
  },
  "bufferViews": [
    {
      "buffer": 0,
      "byteLength": 72000,
      "name": "floatBufferViews",
      "target": 34963
    },
    {
      "buffer": 0,
      "byteLength": 32432,
      "byteOffset": 72000,
      "byteStride": 8,
      "name": "floatBufferViews",
      "target": 34962
    },
    {
      "buffer": 0,
      "byteLength": 97296,
      "byteOffset": 104432,
      "byteStride": 12,
      "name": "floatBufferViews",
      "target": 34962
    }
  ],
  "buffers": [
    {
      "byteLength": 201728,
      "uri": "scene.bin"
    }
  ],
  "extensionsRequired": [
    "KHR_materials_pbrSpecularGlossiness"
  ],
  "extensionsUsed": [
    "KHR_materials_pbrSpecularGlossiness"
  ],
  "images": [
    {
      "uri": "textures/material_0_diffuse.png"
    }
  ],
  "materials": [
    {
      "doubleSided": true,
      "extensions": {
        "KHR_materials_pbrSpecularGlossiness": {
          "diffuseFactor": [
            1.0,
            1.0,
            1.0,
            1.0
          ],
          "diffuseTexture": {
            "index": 0
          },
          "glossinessFactor": 0.6,
          "specularFactor": [
            0.0,
            0.0,
            0.0
          ]
        }
      },
      "name": "material_0"
    }
  ],
  "meshes": [
    {
      "name": "Object_0",
      "primitives": [
        {
          "attributes": {
            "NORMAL": 1,
            "POSITION": 0,
            "TEXCOORD_0": 2
          },
          "indices": 3,
          "material": 0,
          "mode": 4
        }
      ]
    },
    {
      "name": "Object_1",
      "primitives": [
        {
          "attributes": {
            "NORMAL": 5,
            "POSITION": 4,
            "TEXCOORD_0": 6
          },
          "indices": 7,
          "material": 0,
          "mode": 4
        }
      ]
    }
  ],
  "nodes": [
    {
      "children": [
        1
      ],
      "matrix": [
        1.0,
        0.0,
        0.0,
        0.0,
        0.0,
        -1.0,
        -2.220446049250313e-16,
        0.0,
        0.0,
        2.220446049250313e-16,
        -1.0,
        0.0,
        0.0,
        -47.811901092529304,
        20.109262466430653,
        1.0
      ],
      "name": "Sketchfab_model"
    },
    {
      "children": [
        2,
        3
      ],
      "name": "goblin_pose_01.obj.cleaner.materialmerger.gles"
    },
    {
      "mesh": 0,
      "name": "Object_2"
    },
    {
      "mesh": 1,
      "name": "Object_3"
    }
  ],
  "samplers": [
    {
      "magFilter": 9729,
      "minFilter": 9987,
      "wrapS": 10497,
      "wrapT": 10497
    }
  ],
  "scene": 0,
  "scenes": [
    {
      "name": "Sketchfab_Scene",
      "nodes": [
        0
      ]
    }
  ],
  "textures": [
    {
      "sampler": 0,
      "source": 0
    }
  ]
}
